<svg id="Capa_1" enable-background="new 0 0 510.947 510.947" height="512" viewBox="0 0 510.947 510.947" width="512" xmlns="http://www.w3.org/2000/svg"><path id="XMLID_1127_" d="m451.474 285.947c0-28.857-23.477-52.334-52.333-52.334s-52.333 23.477-52.333 52.334c0 20.669 12.046 38.573 29.485 47.072-10.263 18.742-30.41 30.594-53.818 30.594h-109.335v-33.483c66.532-7.784 118.333-64.491 118.333-133.079v-123.1c0-26.488-21.505-48.044-47.972-48.135v-25.816h-38.333c-21.505 0-39 17.495-39 39s17.495 39 39 39h38.333v-22.18c9.924.092 17.972 8.186 17.972 18.131v123.1c0 57.346-46.654 104-104 104s-104-46.654-104-104v-124.91c0-9.852 7.899-17.878 17.694-18.118v23.977h38.333c21.505 0 39-17.495 39-39s-17.495-39-39-39h-38.333v24.011c-26.339.241-47.694 21.734-47.694 48.129v124.91c0 69.046 52.494 126.056 119.667 133.232v33.33h-50c-40.62 0-73.667 33.047-73.667 73.667s33.047 73.667 73.667 73.667h6.333c40.62 0 73.667-33.047 73.667-73.667v-43.667h109.333c38.631 0 71.388-22.066 84.742-55.958 25.037-3.893 44.259-25.596 44.259-51.707zm-197.973-237.947h-8.333c-4.962 0-9-4.037-9-9s4.038-9 9-9h8.333zm-112.333-18h8.333c4.962 0 9 4.037 9 9s-4.038 9-9 9h-8.333zm41.972 407.28c0 24.078-19.589 43.667-43.667 43.667h-6.333c-24.078 0-43.667-19.589-43.667-43.667s19.589-43.667 43.667-43.667h50zm216-129c-12.314 0-22.333-10.019-22.333-22.333 0-12.315 10.019-22.334 22.333-22.334 12.315 0 22.333 10.019 22.333 22.334.001 12.315-10.018 22.333-22.333 22.333z"/></svg>