<svg id="Capa_1" enable-background="new 0 0 510 510" height="512" viewBox="0 0 510 510" width="512" xmlns="http://www.w3.org/2000/svg"><g><path d="m509.975 285c-1.068-49.809-41.915-90-91.975-90h-203.139c-11.592-9.372-26.328-15-42.361-15-37.22 0-67.5 30.28-67.5 67.5 0 13.867 4.207 26.767 11.406 37.5h-41.406v-135h45v-150h-120v150h45v135h-45v90h75v47.58c-17.458 6.192-30 22.865-30 42.42 0 24.813 20.187 45 45 45s45-20.187 45-45c0-11.517-4.354-22.032-11.495-30h262.99c-7.142 7.968-11.495 18.483-11.495 30 0 24.813 20.186 45 45 45 24.813 0 45-20.187 45-45 0-19.555-12.541-36.227-30-42.42v-47.58h75c0-9.531 0-79.51 0-90zm-479.975-255h60v90h-60zm210 195h178c33.518 0 60.908 26.736 61.968 60h-239.968zm-105 22.5c0-20.678 16.822-37.5 37.5-37.5s37.5 16.822 37.5 37.5-16.822 37.5-37.5 37.5-37.5-16.822-37.5-37.5zm-45 232.5c-8.271 0-15-6.729-15-15s6.729-15 15-15 15 6.729 15 15-6.729 15-15 15zm330 0c-8.272 0-15-6.729-15-15s6.728-15 15-15c8.271 0 15 6.729 15 15s-6.729 15-15 15zm-15-75h-300v-30h300zm75-60h-450v-30h450z"/><path d="m405 135c24.813 0 45-20.187 45-45 0-6.178-1.765-17.434-17.025-43.74-9.588-16.528-17.124-26.931-27.975-42.653-10.853 15.724-18.388 26.125-27.975 42.653-15.26 26.306-17.025 37.562-17.025 43.74 0 24.813 20.186 45 45 45zm0-77.194c8.635 14.55 14.872 27.615 15 32.206-.007 8.265-6.733 14.988-15 14.988-8.272 0-15-6.729-15-14.982.122-4.585 6.361-17.656 15-32.212z"/></g></svg>