<?xml version="1.0" encoding="iso-8859-1"?>
<!-- Generator: Adobe Illustrator 18.0.0, SVG Export Plug-In . SVG Version: 6.00 Build 0)  -->
<!DOCTYPE svg PUBLIC "-//W3C//DTD SVG 1.1//EN" "http://www.w3.org/Graphics/SVG/1.1/DTD/svg11.dtd">
<svg version="1.1" id="Capa_1" xmlns="http://www.w3.org/2000/svg" xmlns:xlink="http://www.w3.org/1999/xlink" x="0px" y="0px"
	 viewBox="0 0 394 394" style="enable-background:new 0 0 394 394;" xml:space="preserve">
<g>
	<path d="M268.287,20.057h-21.284V6c0-3.313-2.687-6-6-6s-6,2.687-6,6v14.057h-23V6c0-3.313-2.687-6-6-6s-6,2.687-6,6v14.057h-23V6
		c0-3.313-2.687-6-6-6s-6,2.687-6,6v14.057h-24V6c0-3.313-2.687-6-6-6s-6,2.687-6,6v14.057h-23V6c0-3.313-2.687-6-6-6s-6,2.687-6,6
		v14.057h-23V6c0-3.313-2.687-6-6-6s-6,2.687-6,6v14.057H38.799c-3.313,0-6,2.687-6,6v340.481v20.999c0,3.313,2.687,6,6,6h229.489
		c3.313,0,6-2.687,6-6v-20.999V26.057C274.287,22.743,271.601,20.057,268.287,20.057z M262.287,360.538h-33.46
		c14.928-7.638,26.063-17.501,33.46-25.456V360.538z M203.698,357.346c7.795-9.974,10.993-22.548,12.155-33.346h40.172
		C247.045,334.265,229.546,350.379,203.698,357.346z M44.799,32.057h14.205l0,14.692c0,3.285,2.531,6.15,5.815,6.249
		c3.398,0.102,6.185-2.622,6.185-5.997V32.057h23l0,14.692c0,3.285,2.531,6.15,5.815,6.249c3.398,0.102,6.185-2.622,6.185-5.997
		V32.057h23v14.692c0,3.285,2.531,6.15,5.815,6.249c3.398,0.102,6.185-2.622,6.185-5.997V32.057h24v14.692
		c0,3.285,2.531,6.15,5.815,6.249c3.398,0.102,6.185-2.622,6.185-5.997V32.057h23v14.692c0,3.285,2.531,6.15,5.815,6.249
		c3.398,0.102,6.185-2.622,6.185-5.997V32.057h23v14.692c0,3.285,2.531,6.15,5.815,6.249c3.398,0.102,6.185-2.622,6.185-5.997
		V32.057h15.284V312h-51.979c-3.21,0-5.831,2.532-5.994,5.738c-1.031,20.265-7.792,31.02-14.314,36.711
		c-4.609,4.021-10.605,6.089-16.721,6.089H44.799V32.057z M44.799,381.536v-8.999h217.489v8.999H44.799z"/>
	<rect x="123.003" y="77" width="120" height="12"/>
	<rect x="64.003" y="77" width="38" height="12"/>
	<rect x="196.003" y="123" width="47" height="12"/>
	<rect x="64.003" y="123" width="105" height="12"/>
	<rect x="145.003" y="170" width="98" height="12"/>
	<rect x="64.003" y="170" width="62" height="12"/>
	<rect x="64.003" y="261" width="62" height="12"/>
	<rect x="210.003" y="216" width="33" height="12"/>
	<rect x="112.003" y="216" width="84" height="12"/>
	<rect x="64.003" y="216" width="29" height="12"/>
	<path d="M307.285,21.557c-3.313,0-6,2.687-6,6v331.98c0,8.74,5.78,16.155,13.718,18.624V388c0,3.313,2.687,6,6,6s6-2.687,6-6
		v-9.998c7.708-2.604,13.28-9.889,13.28-18.465V34.757c5.247,2.339,8.918,7.594,8.918,13.699v146c0,3.313,2.687,6,6,6s6-2.687,6-6
		v-146c0-14.1-10.864-25.71-24.661-26.9C335.769,21.49,307.285,21.557,307.285,21.557z M328.283,33.557V114h-14.998V33.557H328.283z
		 M320.784,367.037c-4.135,0-7.499-3.364-7.499-7.5V126h14.998v233.537C328.283,363.672,324.919,367.037,320.784,367.037z"/>
</g>
<g>
</g>
<g>
</g>
<g>
</g>
<g>
</g>
<g>
</g>
<g>
</g>
<g>
</g>
<g>
</g>
<g>
</g>
<g>
</g>
<g>
</g>
<g>
</g>
<g>
</g>
<g>
</g>
<g>
</g>
</svg>
