<?xml version="1.0" encoding="iso-8859-1"?>
<!-- Generator: Adobe Illustrator 19.0.0, SVG Export Plug-In . SVG Version: 6.00 Build 0)  -->
<svg version="1.1" id="Capa_1" xmlns="http://www.w3.org/2000/svg" xmlns:xlink="http://www.w3.org/1999/xlink" x="0px" y="0px"
	 viewBox="0 0 512 512" style="enable-background:new 0 0 512 512;" xml:space="preserve">
<g>
	<g>
		<path d="M452.249,319.887c4.377,0,7.923-3.547,7.923-7.923v-25.387c0-16.728-9.476-31.28-23.337-38.588V34.23
			c0-4.376-3.546-7.923-7.923-7.923h-19.878V7.923c0-4.376-3.546-7.923-7.923-7.923H147.293c-4.376,0-7.923,3.547-7.923,7.923
			s3.547,7.923,7.923,7.923h245.895v227.13H257.757c-11.491,0-21.631-6.911-25.833-17.606l-7.03-17.896
			c-6.601-16.801-22.529-27.658-40.581-27.658H99.789V15.846h21.094c4.376,0,7.923-3.547,7.923-7.923S125.258,0,120.882,0H91.866
			c-4.376,0-7.923,3.547-7.923,7.923v173.439c-18.485,5.054-32.115,21.988-32.115,42.054v248.298
			C51.827,493.928,69.9,512,92.114,512h327.771c22.214,0,40.288-18.072,40.288-40.287V338.374c0-4.376-3.546-7.923-7.923-7.923
			s-7.923,3.547-7.923,7.923v133.339c0,13.477-10.965,24.44-24.441,24.44H92.114c-13.477,0-24.44-10.964-24.44-24.44V223.416
			c0-15.303,12.451-27.754,27.754-27.754h88.885c11.491,0,21.631,6.911,25.833,17.606l7.03,17.897
			c6.602,16.801,22.53,27.658,40.581,27.658h158.814c15.303,0,27.754,12.451,27.754,27.754v25.387
			C444.326,316.339,447.873,319.887,452.249,319.887z M420.988,243.199c-1.453-0.147-2.926-0.223-4.418-0.223h-7.535V42.153h11.953
			V243.199z"/>
	</g>
</g>
<g>
	<g>
		<path d="M195.144,120.038c10.702-7.682,17.693-20.222,17.693-34.371c0-23.322-18.972-42.294-42.294-42.294
			c-23.32,0-42.294,18.972-42.294,42.294c0,14.15,6.991,26.688,17.693,34.371c-10.701,7.681-17.693,20.221-17.693,34.371
			c0,4.376,3.547,7.923,7.923,7.923c4.376,0,7.923-3.547,7.923-7.923c0-14.583,11.864-26.447,26.448-26.447
			c14.584,0,26.447,11.865,26.447,26.447c0,4.376,3.547,7.923,7.923,7.923c4.376,0,7.923-3.547,7.923-7.923
			C212.837,140.259,205.846,127.719,195.144,120.038z M170.544,112.114c-14.583,0-26.447-11.864-26.447-26.448
			c0-14.584,11.864-26.447,26.447-26.447s26.447,11.865,26.447,26.447C196.991,100.249,185.126,112.114,170.544,112.114z"/>
	</g>
</g>
<g>
	<g>
		<path d="M360.073,53.194H343.25c-4.377,0-7.923,3.547-7.923,7.923c0,4.376,3.546,7.923,7.923,7.923h16.822
			c4.377,0,7.923-3.547,7.923-7.923C367.996,56.741,364.449,53.194,360.073,53.194z"/>
	</g>
</g>
<g>
	<g>
		<path d="M316.84,53.194h-66.753c-4.376,0-7.923,3.547-7.923,7.923c0,4.376,3.547,7.923,7.923,7.923h66.753
			c4.377,0,7.923-3.547,7.923-7.923C324.763,56.741,321.216,53.194,316.84,53.194z"/>
	</g>
</g>
<g>
	<g>
		<path d="M360.072,208.351H250.087c-4.376,0-7.923,3.547-7.923,7.923c0,4.376,3.547,7.923,7.923,7.923h109.985
			c4.377,0,7.923-3.547,7.923-7.923C367.995,211.899,364.448,208.351,360.072,208.351z"/>
	</g>
</g>
<g>
	<g>
		<path d="M360.073,169.562h-56.437c-4.377,0-7.923,3.547-7.923,7.923s3.546,7.923,7.923,7.923h56.437
			c4.377,0,7.923-3.547,7.923-7.923S364.448,169.562,360.073,169.562z"/>
	</g>
</g>
<g>
	<g>
		<path d="M277.224,169.562h-27.137c-4.376,0-7.923,3.547-7.923,7.923s3.547,7.923,7.923,7.923h27.137
			c4.377,0,7.923-3.547,7.923-7.923S281.601,169.562,277.224,169.562z"/>
	</g>
</g>
<g>
	<g>
		<path d="M360.072,91.982H250.087c-4.376,0-7.923,3.547-7.923,7.923s3.547,7.923,7.923,7.923h109.985
			c4.377,0,7.923-3.547,7.923-7.923S364.448,91.982,360.072,91.982z"/>
	</g>
</g>
<g>
	<g>
		<path d="M360.072,130.773H250.087c-4.376,0-7.923,3.547-7.923,7.923c0,4.376,3.547,7.923,7.923,7.923h109.985
			c4.377,0,7.923-3.547,7.923-7.923C367.995,134.321,364.448,130.773,360.072,130.773z"/>
	</g>
</g>
<g>
</g>
<g>
</g>
<g>
</g>
<g>
</g>
<g>
</g>
<g>
</g>
<g>
</g>
<g>
</g>
<g>
</g>
<g>
</g>
<g>
</g>
<g>
</g>
<g>
</g>
<g>
</g>
<g>
</g>
</svg>
