<svg xmlns="http://www.w3.org/2000/svg" width="63.105" height="66.265" viewBox="0 0 63.105 66.265">
  <defs>
    <style>
      .cls-1 {
        mix-blend-mode: luminosity;
        isolation: isolate;
      }

      .cls-2 {
        fill: #d4e1f4;
      }

      .cls-3 {
        fill: #0f1010;
      }

      .cls-4 {
        fill: #1ae5be;
      }

      .cls-5 {
        fill: #0635c9;
      }
    </style>
  </defs>
  <g id="appointment_-_patient" data-name="appointment - patient" class="cls-1">
    <path id="Path_94" data-name="Path 94" class="cls-2" d="M21.279,44.741h36.36A5.637,5.637,0,0,0,52,39.1H15.639A5.638,5.638,0,0,0,10,44.741V82.934a5.638,5.638,0,0,0,5.639,5.639V50.38A5.638,5.638,0,0,1,21.279,44.741Zm0,0" transform="translate(-8.59 -33.589)"/>
    <path id="Path_95" data-name="Path 95" class="cls-2" d="M241.831,276.931A14.107,14.107,0,0,1,261.5,263.974a14.1,14.1,0,1,0-15.367,23.093,14.07,14.07,0,0,1-4.3-10.137Zm0,0" transform="translate(-204.103 -223.356)"/>
    <g id="Group_64" data-name="Group 64" transform="translate(11.49)">
      <path id="Path_96" data-name="Path 96" class="cls-3" d="M104.763,209.1H82.91a1.41,1.41,0,1,0,0,2.82h21.853a1.41,1.41,0,1,0,0-2.82Zm0,0" transform="translate(-81.5 -179.622)"/>
      <path id="Path_97" data-name="Path 97" class="cls-3" d="M95.994,274.1H82.91a1.41,1.41,0,1,0,0,2.82H95.994a1.41,1.41,0,0,0,0-2.82Zm0,0" transform="translate(-81.5 -235.458)"/>
      <path id="Path_98" data-name="Path 98" class="cls-4" d="M92.41,11.011A1.414,1.414,0,0,0,93.82,9.6V1.41a1.41,1.41,0,0,0-2.82,0V9.6A1.414,1.414,0,0,0,92.41,11.011Zm0,0" transform="translate(-89.661)"/>
      <path id="Path_99" data-name="Path 99" class="cls-4" d="M248.41,0A1.414,1.414,0,0,0,247,1.41V9.6a1.41,1.41,0,0,0,2.82,0V1.41A1.414,1.414,0,0,0,248.41,0Zm0,0" transform="translate(-223.667)"/>
      <path id="Path_100" data-name="Path 100" class="cls-3" d="M291.883,321.705l-8.374,7.994-4.328-4.342a1.406,1.406,0,0,0-1.988,1.988l5.315,5.315a1.387,1.387,0,0,0,1,.409,1.364,1.364,0,0,0,.973-.395l9.362-8.953a1.4,1.4,0,0,0,.042-1.987A1.434,1.434,0,0,0,291.883,321.705Zm0,0" transform="translate(-249.249 -276.012)"/>
    </g>
    <path id="Path_101" data-name="Path 101" class="cls-5" d="M50.458,60.512V36.15A7.051,7.051,0,0,0,43.409,29.1H7.049A7.052,7.052,0,0,0,0,36.15V74.343a7.052,7.052,0,0,0,7.049,7.049h26.1a15.51,15.51,0,1,0,17.313-20.88ZM7.049,31.921h36.36a4.241,4.241,0,0,1,4.23,4.23v3.412H2.82V36.15A4.232,4.232,0,0,1,7.049,31.921Zm0,46.652a4.242,4.242,0,0,1-4.23-4.23V42.367H47.639V60.244H47.6A15.532,15.532,0,0,0,32.342,78.573ZM47.6,88.442A12.689,12.689,0,1,1,60.286,75.753,12.688,12.688,0,0,1,47.6,88.442Zm0,0" transform="translate(0 -24.998)"/>
  </g>
</svg>
