<?xml version="1.0" encoding="iso-8859-1"?>
<!-- Generator: Adobe Illustrator 19.0.0, SVG Export Plug-In . SVG Version: 6.00 Build 0)  -->
<svg version="1.1" id="Capa_1" xmlns="http://www.w3.org/2000/svg" xmlns:xlink="http://www.w3.org/1999/xlink" x="0px" y="0px"
	 viewBox="0 0 497.803 497.803" style="enable-background:new 0 0 497.803 497.803;" xml:space="preserve">
<g>
	<g>
		<path d="M457.002,339.951h-2.9c14.4-5.1,26.5-15.4,33.9-28.7c12.5-21.8,11.7-48.8-2.1-69.8c-4-6-8-10.7-14-14.2v-7.7
			c0-12.6-7.8-23.6-19.3-26.8l-29.1-8c-5.4-1.5-11.2-1.5-16.6,0l-28.8,8c-11.4,3.2-19.2,14.2-19.2,26.7v7.5
			c-6,3.5-10.2,8.4-14.3,14.5c-13.7,21-14.5,48-2,69.8c7.4,13.4,19.4,23.6,33.8,28.7h-14.4c-12-13.2-29-20.9-46.9-21h-31.2v-8.4
			c28.3-13.3,47.5-40.6,50.6-71.7c13.2-0.7,23.3-12,22.6-25.2c-0.3-5.9-2.8-11.4-6.9-15.6c-4.1-4.1-9.5-6.6-15.3-6.9v-32.2h11.1
			c4.4,0,8-3.5,8-7.9c0,0,0,0,0-0.1c0-34.3-27.9-62.1-62.1-62.1h-55.8c-11.7-0.1-22.6,5.8-29.1,15.5c-20.7,1.3-32.4,12.9-38.7,22.8
			c-4.4,7-7.3,14.7-8.5,22.8c0,0.4,0.1,0.7,0.1,1.1v39.9c-13.2,0.7-23.3,12-22.6,25.2c0.7,12.2,10.4,21.9,22.6,22.6
			c1.8,20.4,10.8,39.6,25.4,54.1c8.1,8.3,17.9,14.7,28.6,19v7h-31.2c-21.9,0.2-42.1,11.5-53.7,30h-22v-0.6l13.1-8.6
			c0.5-0.3,0.9-0.7,1.3-1.1c10.7-10.7,16.7-25.2,16.6-40.3v-62.3c0-12-8.1-22.4-19.7-25.4l-29.5-7.5c-0.1,0-0.2,0-0.3-0.1
			c-2.1-0.5-4.2-0.8-6.4-0.9c-3.3-0.2-6.5,0.1-9.7,1l-29,7.5c-11.5,3-19.6,13.4-19.5,25.4v11.6c0,0.6-0.3,1.2-0.3,1.8
			c0,0.8,0.3,1.5,0.3,2.2v46.8c0,21.9,12.2,41.6,31.4,50.6h-14.2c-22.9,0-41.1,19.1-41.1,41.9v20.3c-0.1,4.1,3.1,7.6,7.2,7.7
			c0.1,0,0.3,0,0.4,0h112.3v21.4c0,4.4,3.9,7.6,8.3,7.6h241.3c4.4,0,8.3-3.1,8.3-7.6v-21.3h112.4c4.1,0.1,7.5-3.2,7.6-7.3
			c0-0.1,0-0.3,0-0.4v-27.2C497.902,359.751,479.702,339.951,457.002,339.951z M471.902,284.451v-35.1c0,0.3,0.5,0.6,0.7,0.9
			c10.4,16,11,36.6,1.5,53.2c-2.7,4.8-6.2,9.1-10.3,12.7C469.202,306.451,472.002,295.551,471.902,284.451z M159.902,222.651
			c-3.8-0.6-6.6-3.9-6.5-7.7c0-2.1,0.9-4.1,2.4-5.6c1.1-1.2,2.5-1.9,4.1-2.1V222.651z M90.202,225.951h-1.3v-1
			c0-2.4-1.1-4.6-2.9-6.1l28.3,7.2c4.5,1.2,7.6,5.2,7.6,9.9v25.6c-9.5,4-20.3,3.1-29.1-2.3c-3.5-2.2-6.7-4.8-9.5-7.8
			c3.3-1.1,5.6-4.1,5.6-7.6v-1.9h1.3c4.4,0,8-3.6,8-8C98.202,229.551,94.602,225.951,90.202,225.951z M39.902,249.351v-13.4
			c-0.1-4.6,3-8.7,7.5-9.8l28.4-7.3c-1.8,1.5-2.9,3.8-2.9,6.1v1h-1.5c-4.4,0-8,3.6-8,8c0,4.4,3.6,8,8,8h1.5v1.4
			c-1-0.1-2.3-0.1-3.6-0.1c-10.5,0.2-20.7,3.4-29.4,9.3V249.351z M39.902,298.351v-25.8c4-4.1,16.1-13.1,29-13.3
			c4.2,5.2,9.3,9.8,15,13.4c7.6,4.8,16.4,7.4,25.4,7.5c4.2,0,8.5-0.6,12.6-1.7v20c0,10.6-4.1,20.8-11.5,28.4l-16,10.3
			c-8.6,3-17.9,3.1-26.5,0.2C51.102,331.751,39.902,316.051,39.902,298.351z M72.802,402.951h-56.9v-12.1
			c0-14.1,11.1-25.9,25.1-25.9h20.7l11.1,11.5V402.951z M74.002,355.051c5.3,0.6,10.6,0.5,15.8-0.3l-8.1,8.1L74.002,355.051z
			 M119.902,381.151v21.8h-31v-24.5l12.9-13.5h20.5C120.902,370.951,119.902,375.751,119.902,381.151z M316.002,378.651
			c2.9,0,5.6,1.1,7.6,3.2c2,2,3.2,4.8,3.2,7.6c0,2.9-1.2,5.7-3.2,7.7s-4.7,3.2-7.6,3.1c-6,0-10.8-4.9-10.8-10.8
			C305.202,383.551,310.002,378.751,316.002,378.651z M338.902,209.351c1.5,1.5,2.3,3.5,2.3,5.6c0.2,3.8-2.5,7.1-6.3,7.7v-15.5
			C336.402,207.651,337.702,208.351,338.902,209.351z M218.802,115.951c0-0.1,0.1-0.1,0.1-0.2c0.9-1.9,2.1-3.7,3.6-5.2
			c3.6-3.6,8.5-5.6,13.5-5.6h55.8c22.7,0,41.7,17,45.5,38h-101.2c-0.1,0-0.2,0.1-0.3,0.1c-0.3,0-0.6,0-0.8,0
			c-10.1-0.5-17.9-8.9-17.9-18.9C216.902,121.251,217.602,118.451,218.802,115.951z M182.002,135.851c4.7-7.5,11.1-12.2,19.1-14.3
			c-0.1,0.9-0.1,1.7-0.1,2.6c0.1,13.3,7.6,25.4,19.5,31.3c-16.8,16.9-35.6,20-44.6,20.3v-23.9h0
			C175.902,150.051,177.602,142.851,182.002,135.851z M196.702,281.551c-13.4-13.5-20.9-31.7-20.8-50.7v-39.2
			c13-0.4,40.2-4.7,62.4-32.7h80.6v71.9c-0.1,29.9-18.6,56.6-46.6,67.2C246.102,307.851,216.502,301.451,196.702,281.551z
			 M238.902,431.951L238.902,431.951h-103v-50.8c0-6.9,1.6-13.7,4.6-20c7.1-14.6,21.2-24.5,37.4-26.2v5.2
			c-5.5,1.6-10.5,4.4-14.5,8.4c-6.1,6-9.5,14.3-9.5,22.9v34.2c0,4.5,3.5,8.1,8,8.3h9.8c4.4,0,8-3.6,8-8c0-4.4-3.6-8-8-8h-1.8v-26.4
			c0-4.4,1.7-8.6,4.8-11.7c2.9-3.1,7-4.8,11.3-4.9h0.3c9.1,0.1,16.5,7.4,16.6,16.6v26.4h-4.4c-4.4,0-8,3.6-8,8c0,4.4,3.6,8,8,8h12.2
			c4.5-0.1,8.1-3.7,8.2-8.3v-34.2c0-15.2-11-27.9-25-31.4v-5.1h24.5l20.5,20.6V431.951z M229.902,323.451v-6.7
			c12.6,2.5,25.5,2.3,38-0.7v7.4l-18.9,19.1L229.902,323.451z M361.902,431.951h-107v-73l24.3-24h28.7v29
			c-11.2,3.5-18.8,13.9-18.8,25.6c0,7.1,2.8,13.9,7.8,19c5,5.1,11.9,7.9,19,7.9c7.1,0,14-2.8,19-7.9c5-5,7.8-11.8,7.9-19
			c0-7.1-2.8-13.9-7.9-18.9c-3.1-3.1-6.9-5.4-11-6.7v-28.3c11.4,2.3,21.5,8.6,28.6,17.8c6.1,8,9.4,17.7,9.4,27.8V431.951z
			 M374.902,231.651v-12.2c0-5.3,3-10,7.6-11.2l28.9-8.1c1.7-0.5,3.5-0.6,5.3-0.5c0.9,0.1,1.8,0.2,2.6,0.5l29,8
			c4.6,1.3,7.6,5.9,7.6,11.3v29.5c-23,3.8-36.1-8.4-40.3-13c4.5,0,8.1-3.5,8.3-8v-2h0.9c4.4,0,8-3.6,8-8c0-4.4-3.6-8-8-8h-0.9v-2.3
			c0-4.1-3.1-7.5-7.2-8c-0.3,0-0.5,0-0.8,0c-4.4,0-8,3.6-8,8v2.3h-1.8c-4.4,0-8,3.6-8,8c0,4.4,3.6,8,8,8h1.8v2c-0.1,1,0.1,2.1,0.4,3
			c-0.1,0-0.5,0-0.6,0h-0.1c-2.6,0-5,1.3-6.4,3.4c-9.2,13.2-20.3,16-26.3,16.3V231.651z M356.502,303.351c-9.5-16.6-9-37.1,1.4-53.1
			c0.3-0.5,1-0.9,1-1.3v35.5c-0.1,11.3,2.8,22.3,8.4,32.1C362.902,312.851,359.302,308.351,356.502,303.351z M374.902,284.451v-17.8
			c9-0.2,21.6-3.1,33.3-15.6c10.8,9.5,24.7,14.7,39.1,14.7c2.9,0,5.7-0.2,8.6-0.6v19.3c0.2,11.5-3.9,22.6-11.5,31.3l-15.1,10.6
			l-14.7,2.9c-4.1-0.1-8.1-0.8-11.9-2.2c-0.3-0.1-0.6-0.2-0.8-0.3c-0.3-0.1-0.5-0.3-0.8-0.4
			C385.402,319.751,374.902,302.951,374.902,284.451z M377.902,402.951v-21.8c-0.1-8.7-2-17.3-5.6-25.2h24.3c3.3,2.9,7.1,5,11.3,6.1
			v40.9H377.902z M408.202,344.751c2.4,0.3,4.9,0.5,7.3,0.5c0.5,0,1-0.1,1.5-0.2l7.9-1.6v1c-3,2.1-5.8,3.1-9,3
			C413.102,347.351,410.402,346.451,408.202,344.751z M423.902,402.951v-40.3c4.5-1.4,8.7-3.7,12.3-6.7h20.8
			c13.9,0,24.9,12.6,24.9,28.1v18.9H423.902z"/>
	</g>
</g>
<g>
	<g>
		<path d="M402.902,266.951c-4.4,0-8,3.6-8,8v2.3c0,0.4-0.2,0.7-0.5,0.9c-0.3-0.2-0.5-0.6-0.5-0.9v-2.3c0-4.4-3.6-8-8-8
			c-4.4,0-8,3.6-8,8v2.3c0,9.4,7.5,17,16.5,17c9.2-0.2,16.6-7.8,16.5-17v-2.3C410.902,270.551,407.302,266.951,402.902,266.951z"/>
	</g>
</g>
<g>
	<g>
		<path d="M444.902,266.951c-4.4,0-8,3.6-8,8v2.3c0.2,0.3,0.1,0.6-0.2,0.8s-0.6,0.1-0.8-0.2c-0.1-0.2-0.1-0.4,0-0.6v-2.3
			c0-4.4-3.6-8-8-8c-4.4,0-8,3.6-8,8v2.3c0,9.3,7.5,16.9,16.5,16.9s16.5-7.6,16.5-17v-2.2
			C452.902,270.551,449.302,266.951,444.902,266.951z"/>
	</g>
</g>
<g>
	<g>
		<path d="M67.902,280.451c-4.4,0-8,3.6-8,8c0-4.4-3.6-8-8-8c-4.4,0-8,3.6-8,8v2.1c0,8.8,7.2,16,16,16c8.8,0,16-7.1,16-16v-2.1
			C75.902,284.051,72.302,280.451,67.902,280.451z M59.902,290.951c-0.2,0,0-0.2,0-0.4
			C59.902,290.751,60.102,290.951,59.902,290.951z"/>
	</g>
</g>
<g>
	<g>
		<path d="M109.902,280.451c-4.4,0-8,3.6-8,8v2.1c0,0.2-0.3,0.4-0.5,0.4c-0.2,0-0.5-0.2-0.5-0.4v-2.1c0-4.4-3.6-8-8-8
			c-4.4,0-8,3.6-8,8v2.1c0.1,9.1,7.4,16.4,16.5,16.4c9.1,0,16.5-7.3,16.5-16.4v-2.1
			C117.902,284.051,114.302,280.451,109.902,280.451z"/>
	</g>
</g>
<g>
	<g>
		<path d="M277.802,369.951h-6.8c-4.4,0-8,3.6-8,8c0,4.4,3.6,8,8,8h6.8c4.4,0,8-3.6,8-8
			C285.802,373.551,282.202,369.951,277.802,369.951z"/>
	</g>
</g>
<g>
	<g>
		<path d="M277.802,389.951h-6.8c-4.4,0-8,3.6-8,8c0,4.4,3.6,8,8,8h6.8c4.4,0,8-3.6,8-8
			C285.802,393.551,282.202,389.951,277.802,389.951z"/>
	</g>
</g>
<g>
	<g>
		<path d="M226.902,194.951c-4.4,0-8,3.6-8,8v3.4c0,3.1-2.5,5.6-5.6,5.6c-1.4,0-2.8-0.6-3.8-1.6c-1-1.1-1.6-2.5-1.6-4v-3.4
			c0-4.4-3.6-8-8-8c-4.4,0-8,3.6-8,8v3.4c-0.1,11.8,9.3,21.5,21.1,21.6c0.1,0,0.2,0,0.3,0c12,0,21.6-9.7,21.6-21.6v-3.4
			C234.902,198.551,231.302,194.951,226.902,194.951z"/>
	</g>
</g>
<g>
	<g>
		<path d="M294.802,194.951c-4.4,0-8,3.6-8,8v3.4c0,3.1-2.6,5.6-5.7,5.6c-1.5,0-2.8-0.6-3.9-1.6c-1-1.1-1.5-2.5-1.5-4v-3.4
			c0-4.4-3.6-8-8-8c-4.4,0-8,3.6-8,8v3.4c-0.1,5.7,2.1,11.2,6.1,15.2c0.2,0.1,0.1,0.1,0.1,0.1c8.5,8.4,22.3,8.3,30.7-0.2
			c4-4,6.2-9.5,6.2-15.1v-3.4C302.802,198.551,299.202,194.951,294.802,194.951z"/>
	</g>
</g>
<g>
	<g>
		<path d="M138.702,89.951c-0.1,0-0.3,0-0.4,0h-32.4v-32.4c0-4.2-3.3-7.5-7.5-7.6c-0.1,0-0.3,0-0.4,0h-25.1c-4.4,0-8,3.1-8,7.6v32.4
			h-32.2c-4.2-0.1-7.7,3.3-7.8,7.5c0,0.1,0,0.2,0,0.3v25.1c-0.1,4.4,3.3,8,7.8,8.1h32.2v32.1c0,4.4,3.6,7.9,7.9,7.9h0.1h25.1
			c4.3,0.1,7.8-3.4,7.9-7.7c0-0.1,0-0.1,0-0.2v-32.1h32.4c4.3-0.1,7.7-3.6,7.6-7.9c0-0.1,0-0.1,0-0.2v-25.1
			C146.002,93.651,142.802,90.151,138.702,89.951z M129.902,114.951h-31.9c-4.4,0-8.1,3.5-8.1,7.9v32.1h-9v-32.1
			c0-4.4-3.6-7.9-7.9-7.9c0,0,0,0-0.1,0h-32v-9h32c4.5-0.1,8-3.8,8-8.2v-31.8h9v31.8c0.1,4.5,3.7,8.1,8.1,8.2h31.9V114.951z"/>
	</g>
</g>
<g>
</g>
<g>
</g>
<g>
</g>
<g>
</g>
<g>
</g>
<g>
</g>
<g>
</g>
<g>
</g>
<g>
</g>
<g>
</g>
<g>
</g>
<g>
</g>
<g>
</g>
<g>
</g>
<g>
</g>
</svg>
