<svg id="Capa_1" enable-background="new 0 0 512 512" height="512" viewBox="0 0 512 512" width="512" xmlns="http://www.w3.org/2000/svg"><g><path d="m256 17.5c-57.28 0-103.88 46.6-103.88 103.88s46.6 103.88 103.88 103.88 103.88-46.6 103.88-103.88-46.6-103.88-103.88-103.88zm38.88 118.88h-23.88v23.88c0 8.28-6.72 15-15 15s-15-6.72-15-15v-23.88h-23.88c-8.28 0-15-6.72-15-15s6.72-15 15-15h23.88v-23.88c0-8.28 6.72-15 15-15s15 6.72 15 15v23.88h23.88c8.28 0 15 6.72 15 15s-6.72 15-15 15z"/><path d="m30 179.249c-16.569 0-30 13.431-30 30v271.189c0 7.766 6.296 14.062 14.062 14.062h31.876c7.766 0 14.062-6.296 14.062-14.062v-271.189c0-16.568-13.431-30-30-30z"/><path d="m482 229.249c-16.569 0-30 13.431-30 30v221.189c0 7.766 6.296 14.062 14.062 14.062h31.876c7.766 0 14.062-6.296 14.062-14.062v-221.189c0-16.568-13.431-30-30-30z"/><g><path d="m90 384.5h332v65h-332z"/></g><g><path d="m422 289.5v65h-196.75c0-41.397.668-47.904-3.04-65z"/></g><g><path d="m195.25 317.94v36.56h-105.25v-140.25c27.324 0 50.843 9.183 69.45 25.32 22.502 19.506 35.8 47.887 35.8 78.37z"/></g></g></svg>