<svg id="_x31__x2C_5" height="512" viewBox="0 0 24 24" width="512" xmlns="http://www.w3.org/2000/svg"><circle cx="9" cy="5" fill="#eceff1" r="4.25"/><path d="m.75 20.25v-3.75c0-2.067 1.682-3.75 3.75-3.75h9c2.068 0 3.75 1.683 3.75 3.75v3.75z" fill="#eceff1"/><path d="m9 10c-2.757 0-5-2.243-5-5s2.243-5 5-5 5 2.243 5 5-2.243 5-5 5zm0-8.5c-1.93 0-3.5 1.57-3.5 3.5s1.57 3.5 3.5 3.5 3.5-1.57 3.5-3.5-1.57-3.5-3.5-3.5z"/><path d="m6.5 21h-5.75c-.414 0-.75-.336-.75-.75v-3.5c0-2.619 2.131-4.75 4.75-4.75h8.5c1.295 0 2.544.534 3.425 1.465.285.301.271.775-.029 1.061-.301.283-.776.271-1.061-.029-.599-.633-1.45-.996-2.335-.996h-8.5c-1.792 0-3.25 1.458-3.25 3.25v2.75h5c.414 0 .75.336.75.75s-.336.749-.75.749z"/><path d="m14.5 24c-.269 0-.517-.144-.651-.378l-1.784-3.122h-2.315c-.414 0-.75-.336-.75-.75s.336-.75.75-.75h2.75c.269 0 .518.145.651.378l1.278 2.236 2.39-5.179c.119-.257.373-.426.656-.436.293.013.548.143.683.391l2.787 5.109h2.305c.414 0 .75.336.75.75s-.336.751-.75.751h-2.75c-.274 0-.527-.15-.658-.391l-2.286-4.19-2.375 5.146c-.118.255-.368.423-.648.435-.012 0-.022 0-.033 0z"/></svg>