<svg height="610pt" viewBox="-19 -84 610.66669 610" width="610pt" xmlns="http://www.w3.org/2000/svg"><path d="m285.933594 217.410156c39.417968 0 71.375-31.953125 71.375-71.371094 0-39.417968-31.957032-71.375-71.375-71.375-39.417969 0-71.371094 31.957032-71.371094 71.375.042969 39.398438 31.96875 71.328126 71.371094 71.371094zm0-120.246094c26.992187 0 48.875 21.882813 48.875 48.875 0 26.992188-21.882813 48.871094-48.875 48.871094-26.992188 0-48.871094-21.878906-48.871094-48.871094.027344-26.980468 21.886719-48.847656 48.871094-48.875zm0 0"/><path d="m472.640625 184.785156h-30.375c-39.800781 0-75.789063 24.019532-91.921875 59.859375-14.996094-8.546875-31.960938-13.039062-49.21875-13.023437h-30.375c-17.175781-.015625-34.0625 4.433594-49 12.898437-16.117188-36.160156-51.921875-59.53125-91.511719-59.730469h-30.371093c-55.132813.058594-99.804688 44.730469-99.867188 99.859376v95.808593c0 6.21875 5.039062 11.25 11.25 11.25h159.640625v35.585938c0 6.21875 5.03125 11.25 11.25 11.25h207.589844c6.210937 0 11.25-5.03125 11.25-11.25v-35.585938h160.269531c6.210938 0 11.25-5.039062 11.25-11.25v-95.808593c-.0625-55.128907-44.730469-99.800782-99.859375-99.863282zm0 22.5c.5625 0 1.113281.035156 1.671875.042969l-13.574219 58.234375c-.527343 2.605469-2.652343 4.59375-5.292969 4.941406-.152343.007813-.347656.007813-.453124.011719-2.835938-.15625-5.195313-2.210937-5.742188-4.992187l-13.5-57.957032c2.15625-.183594 4.328125-.277344 6.519531-.28125zm-171.515625 46.835938c2.058594 0 4.09375.105468 6.109375.261718l-18.484375 60.234376-18.5625-60.480469c.1875 0 .367188-.015625.554688-.015625zm-170.890625-46.835938c.765625 0 1.523437.027344 2.285156.046875l-18.769531 68.21875-18.734375-68.101562c1.601563-.097657 3.21875-.164063 4.84375-.164063zm-107.734375 77.363282c.039062-32.339844 20.15625-61.25 50.460938-72.53125l29.539062 107.363281v49.726562h-80zm102.5 84.558593v-49.726562l29.75-108.144531c22.304688 7.570312 40.035156 24.765624 48.28125 46.832031-20.496094 18.867187-32.15625 45.453125-32.148438 73.3125v37.726562zm68.390625-37.722656c.039063-33.84375 22.035156-63.746094 54.335937-73.863281l29.773438 97.027344v61.394531h-84.109375zm185.089844 84.558594h-78.480469v-61.394531l29.222656-95.21875c29.675782 11.601562 49.21875 40.1875 49.257813 72.050781zm-9.480469-157.71875c7.894531-20.808594 24.167969-37.347657 44.851562-45.582031l13.492188 57.886718c2.007812 8.886719 8.085938 16.304688 16.40625 20.019532v78.566406h-42.769531v-37.734375c.011719-27.78125-11.585938-54.296875-31.980469-73.15625zm181 110.878906h-83.75v-78.589844c8.273438-3.734375 14.335938-11.105469 16.398438-19.945312l13.890624-59.589844c31.851563 10.386719 53.417969 40.070313 53.460938 73.570313zm0 0"/><path d="m456.820312 171.210938c32.300782.007812 60.582032-21.679688 68.945313-52.886719 8.359375-31.199219-5.289063-64.125-33.265625-80.269531v-10.804688c0-17.261719-13.988281-31.25-31.25-31.25s-31.25 13.988281-31.25 31.25v6.457031c-31.640625 12.832031-49.761719 46.28125-43.222656 79.792969 6.539062 33.515625 35.898437 57.707031 70.042968 57.707031zm0-22.5c-20.390624-.023438-38.625-12.6875-45.785156-31.777344 9.023438-1.527344 17.835938-4.117188 26.261719-7.707032 10.445313-4.457031 20.082031-10.628906 28.5-18.265624 7.96875 8.929687 20.414063 19.574218 37.351563 24.707031-6.617188 19.917969-25.34375 33.273437-46.328126 33.042969zm48.320313-56.222657c-11.164063-4.632812-19.40625-12.664062-24.457031-18.761719 2.5625-3.789062 4.863281-7.746093 6.890625-11.84375 9.464843 7.65625 15.730469 18.574219 17.566406 30.605469zm-52.640625-65.238281c0-4.832031 3.914062-8.75 8.75-8.75s8.75 3.917969 8.75 8.75v2.445312c-4.34375-.820312-8.757812-1.234374-13.179688-1.238281-1.449218 0-2.890624.058594-4.320312.140625zm4.320312 23.707031c3.527344.003907 7.046876.386719 10.488282 1.148438-15.300782 30.597656-43.402344 39.792969-59.089844 42.550781 2.675781-24.832031 23.621094-43.664062 48.601562-43.699219zm0 0"/><path d="m115.046875 171.210938c39.269531 0 70.625-31.261719 71.375-71.164063 0-.070313 0-.144531 0-.214844 0-39.417969-31.953125-71.371093-71.375-71.371093-39.417969 0-71.375 31.953124-71.375 71.371093 0 39.421875 31.957031 71.378907 71.375 71.378907zm0-120.25c26.941406.035156 48.785156 21.832031 48.875 48.769531-.570313 27.476562-22.023437 48.984375-48.875 48.984375-26.992187 0-48.875-21.882813-48.875-48.875 0-26.992188 21.882813-48.878906 48.875-48.878906zm0 0"/><path d="m517.5 268.5h-21.25c-6.210938 0-11.25 5.039062-11.25 11.25s5.039062 11.25 11.25 11.25h21.25c6.210938 0 11.25-5.039062 11.25-11.25s-5.039062-11.25-11.25-11.25zm0 0"/><path d="m330 318.5c-6.210938 0-11.25 5.039062-11.25 11.25s5.039062 11.25 11.25 11.25h21.25c6.210938 0 11.25-5.039062 11.25-11.25s-5.039062-11.25-11.25-11.25zm0 0"/><path d="m180 276c0-6.210938-5.039062-11.25-11.25-11.25h-16.25c-6.210938 0-11.25 5.039062-11.25 11.25s5.039062 11.25 11.25 11.25h16.25c6.210938 0 11.25-5.039062 11.25-11.25zm0 0"/></svg>