<svg id="Layer_1" enable-background="new 0 0 512 512" height="512" viewBox="0 0 512 512" width="512" xmlns="http://www.w3.org/2000/svg"><g><path d="m256 22c-135.31 0-245 109.69-245 245 0 71.68 30.787 136.167 79.854 180.969h1v-37.07l-26.705-6.647c-1.045-.26-1.924-.914-2.474-1.84s-.703-2.011-.43-3.053l29.15-111.593c6.091-20.663 25.418-35.115 46.992-35.115h235.224c21.573 0 40.9 14.452 47 35.145l14.889 56.994v62.286l-15.354 3.822v37.07h1c4.981-4.548 9.763-9.309 14.354-14.25l6.5-14.718 8.5-3.012c31.672-41.282 50.5-92.935 50.5-148.988 0-135.31-109.69-245-245-245z" fill="#26a6fe"/><path d="m435.5 50h15v26h-15z" fill="#acacac"/><g><path d="m435.5 255.041v178.678c5.273-5.674 10.279-11.576 15-17.731v-160.947z" fill="#fac600"/></g><g><path d="m484.5 36h-143.93c3.246 4.52 5.799 9.568 7.479 15h136.451c4.142 0 7.5-3.358 7.5-7.5s-3.358-7.5-7.5-7.5z" fill="#838383"/></g><path d="m425 232v14.041c0 5.523 4.477 10 10 10h16c5.523 0 10-4.477 10-10v-14.041z" fill="#fff"/><path d="m441 246.041v-14.041h-16v14.041c0 5.523 4.477 10 10 10h16c-5.523 0-10-4.477-10-10z" fill="#f8f6f6"/><path d="m144 428.568c0-2.761-1.872-5.155-4.551-5.822l-48.595-12.096v37.319c15.928 14.544 33.791 26.999 53.146 36.965z" fill="#fed2a4"/><path d="m111.854 415.877-21-5.227v37.319c6.67 6.091 13.684 11.809 21 17.138z" fill="#ffbd86"/><path d="m372.551 422.746c-2.679.667-4.551 3.061-4.551 5.822v56.365c19.355-9.965 37.217-22.421 53.146-36.965v-37.318z" fill="#fed2a4"/><path d="m389 418.652-16.449 4.095c-2.679.667-4.551 3.061-4.551 5.822v56.365c7.215-3.715 14.222-7.777 21-12.163z" fill="#ffbd86"/><g><g><path d="m450.722 399.106-29.15-111.593c-6.268-21.265-25.791-35.862-47.96-35.862h-235.224c-22.169 0-41.691 14.598-47.96 35.862l-29.15 111.593c-.704 2.694.928 5.443 3.63 6.116l74.299 18.495c2.228.555 3.792 2.556 3.792 4.852v55.857c33.813 17.608 72.241 27.574 113.001 27.574s79.188-9.966 113-27.575v-55.857c0-2.296 1.564-4.297 3.792-4.852l74.299-18.495c2.702-.672 4.334-3.421 3.631-6.115z" fill="#d8ecfe"/></g><path d="m168.885 496.04v-73.933c0-6.889-4.692-12.892-11.377-14.556l-66.715-16.607c-2.702-.672-4.334-3.422-3.63-6.116l29.15-111.593c2.331-7.908 6.5-14.887 11.952-20.542-17.803 3.676-32.545 16.866-37.837 34.819l-29.15 111.593c-.704 2.694.928 5.443 3.63 6.116l74.299 18.495c2.228.555 3.792 2.556 3.792 4.852v55.857c8.358 4.352 16.999 8.233 25.886 11.615z" fill="#b3dafe"/><g><g><path d="m298.071 13.129h-21.426c11.514 9.602 18.857 24.046 18.857 40.175v20.065h4.031c17.247 0 31.278 14.031 31.278 31.278v17.056h12.534c2.845 0 5.557.576 8.031 1.61v-56.88c-.001-29.439-23.866-53.304-53.305-53.304z" fill="#fb8801"/></g><path d="m168.656 121.703h12.534v-17.056c0-17.247 14.031-31.278 31.278-31.278h84.035v-20.065c-.001-29.439-23.866-53.304-53.305-53.304h-29.269c-29.439 0-53.304 23.865-53.304 53.304v70.009c2.474-1.035 5.186-1.61 8.031-1.61z" fill="#fe9901"/><path d="m168.656 121.703h12.534v-17.056c0-13.622 8.757-25.231 20.934-29.512v-21.831c0-27.37 20.632-49.909 47.189-52.944-2.008-.23-4.046-.36-6.115-.36h-29.269c-29.439 0-53.304 23.865-53.304 53.304v70.009c2.474-1.035 5.186-1.61 8.031-1.61z" fill="#fb8801"/><g><path d="m181.189 178.115v-57.412h-11.427c-12.703 0-23 10.297-23 23v13.843c0 12.703 10.297 23 23 23h11.488c-.032-.807-.061-1.616-.061-2.431z" fill="#f6a96c"/><path d="m342.237 120.703h-11.427v57.412c0 .815-.029 1.623-.062 2.431h11.488c12.703 0 23-10.297 23-23v-13.843c.001-12.703-10.296-23-22.999-23z" fill="#ffbd86"/></g><path d="m285.618 246.651v-11.183c-4.432 1.067-9.053 1.648-13.808 1.648h-31.621c-4.755 0-9.375-.581-13.808-1.648v11.183c0 2.761-2.239 5-5 5h-13.453l8.041 13.748 40.13 59.668 39.633-59.566 8.014-13.85h-13.13c-2.759 0-4.998-2.239-4.998-5z" fill="#ffbd86"/><g><path d="m248.261 262.488h4.192c2.761 0 5-2.239 5-5v-19.373h-17.264c-4.754 0-9.373-.57-13.808-1.615v10.15c0 2.761-2.239 5-5 5h-13.453l8.041 13.748 40.13 59.668 12.064-18.131-24.083-36.704c-2.181-3.325.204-7.743 4.181-7.743z" fill="#f6a96c"/></g><g><path d="m271.811 238.115h-31.621c-33.137 0-60-26.863-60-60v-73.468c0-17.827 14.451-32.278 32.278-32.278h87.066c17.827 0 32.278 14.451 32.278 32.278v73.468c-.001 33.137-26.864 60-60.001 60z" fill="#fed2a4"/></g><path d="m211.379 178.115v-73.468c0-17.827 14.451-32.278 32.278-32.278h-31.189c-17.827 0-32.278 14.451-32.278 32.278v73.468c0 33.137 26.863 60 60 60h31.189c-33.138 0-60-26.863-60-60z" fill="#ffbd86"/></g><g><g><g><path d="m216 149.382c-4.142 0-7.5-3.358-7.5-7.5v-16.882c0-4.142 3.358-7.5 7.5-7.5s7.5 3.358 7.5 7.5v16.882c0 4.142-3.358 7.5-7.5 7.5z" fill="#d88a55"/></g><g><path d="m296 149.382c-4.142 0-7.5-3.358-7.5-7.5v-16.882c0-4.142 3.358-7.5 7.5-7.5s7.5 3.358 7.5 7.5v16.882c0 4.142-3.358 7.5-7.5 7.5z" fill="#d88a55"/></g></g><g><path d="m258.442 206.333c-10.329 0-20.653-3.93-28.516-11.793-2.929-2.929-2.929-7.678 0-10.606 2.929-2.929 7.678-2.929 10.606 0 9.875 9.875 25.943 9.875 35.82 0 2.929-2.929 7.678-2.929 10.606 0 2.929 2.929 2.929 7.678 0 10.606-7.861 7.861-18.19 11.793-28.516 11.793z" fill="#d88a55"/></g><g><path d="m263.875 167.257h-7.37c-6.167 0-11.185-5.018-11.185-11.185v-17.197c0-4.142 3.358-7.5 7.5-7.5s7.5 3.358 7.5 7.5v13.381h3.555c4.142 0 7.5 3.358 7.5 7.5s-3.358 7.501-7.5 7.501z" fill="#d88a55"/></g></g><g><path d="m303.748 251.651-47.652 71.617-48.167-71.617h-12.051l84.162 125.136c5.011 7.451 7.66 16.135 7.66 25.114v108.058c3.355-.434 6.689-.933 10-1.501v-106.558c0-10.974-3.237-21.588-9.362-30.695l-26.189-38.939 53.614-80.616h-12.015z" fill="#fff"/></g></g><g><path d="m482 233h-78c-5.523 0-10-4.477-10-10v-138c0-5.523 4.477-10 10-10h78c5.523 0 10 4.477 10 10v138c0 5.523-4.477 10-10 10z" fill="#d8ecfe"/></g><path d="m430 223v-5h-16c-2.761 0-5-2.239-5-5v-88c0-2.761 2.239-5 5-5h16v-35c0-5.523 4.477-10 10-10h-36c-5.523 0-10 4.477-10 10v138c0 5.523 4.477 10 10 10h36c-5.523 0-10-4.477-10-10z" fill="#b3dafe"/><g fill="#fac600"><path d="m477 150v-25c0-2.761-2.239-5-5-5h-58c-2.761 0-5 2.239-5 5v25z"/><path d="m409 198v15c0 2.761 2.239 5 5 5h58c2.761 0 5-2.239 5-5v-15z"/></g><g fill="#e8b800"><path d="m436 150v-25c0-2.761 2.239-5 5-5h-27c-2.761 0-5 2.239-5 5v25z"/><path d="m436 213v-15h-27v15c0 2.761 2.239 5 5 5h27c-2.761 0-5-2.239-5-5z"/></g><g><path d="m402.694 196v-44c0-1.657 1.343-3 3-3h74.612c1.657 0 3 1.343 3 3v44c0 1.657-1.343 3-3 3h-74.612c-1.657 0-3-1.343-3-3z" fill="#fff"/></g><path d="m431.388 196v-44c0-1.657 1.343-3 3-3h-28.694c-1.657 0-3 1.343-3 3v44c0 1.657 1.343 3 3 3h28.694c-1.657 0-3-1.343-3-3z" fill="#f8f6f6"/><g><path d="m426.91 177.415v-8.871c0-3.062 2.482-5.544 5.544-5.544h21.091c3.062 0 5.544 2.482 5.544 5.544v8.871c0 3.062-2.482 5.544-5.544 5.544h-21.091c-3.061 0-5.544-2.482-5.544-5.544z" fill="#22b27f"/></g><path d="m441 177.415v-8.871c0-3.062 2.482-5.544 5.544-5.544h-14.09c-3.062 0-5.544 2.482-5.544 5.544v8.871c0 3.062 2.482 5.544 5.544 5.544h14.09c-3.062 0-5.544-2.482-5.544-5.544z" fill="#09a76d"/><g><path d="m225.149 362.644h-12.604c-.839 0-1.52-.68-1.52-1.52v-12.604c0-.839-.68-1.52-1.52-1.52h-15.011c-.839 0-1.52.68-1.52 1.52v12.604c0 .839-.68 1.52-1.52 1.52h-12.604c-.839 0-1.52.68-1.52 1.52v15.011c0 .839.68 1.52 1.52 1.52h12.604c.839 0 1.52.68 1.52 1.52v12.604c0 .839.68 1.52 1.52 1.52h15.011c.839 0 1.52-.68 1.52-1.52v-12.604c0-.839.68-1.52 1.52-1.52h12.604c.839 0 1.52-.68 1.52-1.52v-15.011c0-.84-.68-1.52-1.52-1.52z" fill="#8ac9fe"/></g><g><path d="m204.826 386c-.839 0-1.52-.68-1.52-1.52v-12.604c0-.839-.68-1.52-1.52-1.52h-12.604c-.839 0-1.52-.68-1.52-1.52v-6.193h-8.811c-.839 0-1.52.68-1.52 1.52v15.011c0 .839.68 1.52 1.52 1.52h12.604c.839 0 1.52.68 1.52 1.52v12.604c0 .839.68 1.52 1.52 1.52h15.011c.839 0 1.52-.68 1.52-1.52v-8.818z" fill="#60b7ff"/></g><g><g><path d="m219.5 425.5h-35c-4.143 0-7.5-3.358-7.5-7.5s3.357-7.5 7.5-7.5h35c4.143 0 7.5 3.358 7.5 7.5s-3.357 7.5-7.5 7.5z" fill="#8ac9fe"/></g></g><path d="m197 418c0-4.142 3.357-7.5 7.5-7.5h-20c-4.143 0-7.5 3.358-7.5 7.5s3.357 7.5 7.5 7.5h20c-4.143 0-7.5-3.358-7.5-7.5z" fill="#60b7ff"/></g></svg>