<svg height="512pt" viewBox="-83 0 512 512" width="512pt" xmlns="http://www.w3.org/2000/svg"><path d="m224.847656 413.109375c2.554688 1.207031 5.527344 1.199219 8.074219-.007813 20.164063-9.570312 39.539063-27.785156 39.515625-51.25-.027344-22.734374-27.878906-34.039062-43.601562-18.027343-16.035157-16.078125-43.628907-4.535157-43.609376 18.117187.027344 23.953125 20.484376 42.136719 39.621094 51.167969zm-4.890625-56.394531c1.386719 2.445312 5 5.140625 9.148438 5.023437 3.550781-.085937 6.792969-2.140625 8.574219-5.003906 6.199218-9.96875 19.746093-4.992187 19.757812 5.132813.015625 16.164062-14.546875 29.085937-28.582031 36.492187-14.25-7.34375-28.609375-20.386719-28.625-36.433594-.007813-10.722656 14.359375-14.65625 19.726562-5.210937zm0 0"/><path d="m182.554688 504.5c0 4.140625 3.355468 7.5 7.5 7.5h135.910156c10.554687 0 19.144531-8.585938 19.144531-19.140625 0-11.214844 0-102.8125 0-114.03125 0-4.140625-3.359375-7.5-7.5-7.5-4.144531 0-7.503906 3.359375-7.503906 7.5v36.144531h-39.078125c-10.554688 0-19.140625 8.585938-19.140625 19.144532v62.882812h-81.832031c-4.140626 0-7.5 3.355469-7.5 7.5zm104.332031-70.382812c0-2.285157 1.859375-4.144532 4.140625-4.144532h39.082031v62.882813c0 2.285156-1.859375 4.144531-4.144531 4.144531h-39.078125zm0 0"/><path d="m345.109375 336.613281c0-44.34375-37.972656-60.464843-39.585937-61.128906-.046876-.019531-.097657-.039063-.144532-.058594l-89.667968-34.726562v-21.027344c14.308593-11.128906 24.207031-27.648437 26.628906-46.488281 16.484375-2.230469 30.09375-15.445313 30.09375-31.644532 0-7.234374-2.722656-14.171874-7.734375-19.84375v-28.742187c0-51.253906-41.695313-92.953125-92.949219-92.953125s-92.953125 41.699219-92.953125 92.953125v29.390625c-5 5.5625-7.734375 12.292969-7.734375 19.195312 0 16.140626 13.539062 29.402344 30.089844 31.644532 2.480468 19.519531 12.894531 36.519531 28.148437 47.597656v19.921875c-.089843.035156-89.625 34.742187-89.714843 34.78125-1.617188.664063-39.585938 16.78125-39.585938 61.128906v156.246094c0 10.554687 8.589844 19.140625 19.144531 19.140625h135.910157c4.140624 0 7.5-3.359375 7.5-7.5 0-4.144531-3.359376-7.5-7.5-7.5h-81.828126v-62.882812c0-10.558594-8.589843-19.144532-19.144531-19.144532h-39.082031v-78.359375c0-33.773437 28.496094-46.488281 30.242188-47.234375l62.382812-24.1875c10.476562 22.378906 40.34375 33.65625 64.878906 33.65625 24.503906 0 54.402344-11.257812 64.882813-33.664062l62.476562 24.195312c1.351563.582032 30.242188 13.464844 30.242188 47.234375v7.214844c0 4.140625 3.359375 7.5 7.5 7.5 4.144531 0 7.5-3.359375 7.5-7.5v-7.214844zm-330.109375 93.359375h39.082031c2.28125 0 4.140625 1.859375 4.140625 4.144532v62.882812h-39.082031c-2.28125 0-4.140625-1.859375-4.140625-4.140625zm242.4375-288.433594c0 7.808594-6.765625 14.269532-14.5 16.273438v-32.523438c8.195312 2.148438 14.5 8.753907 14.5 16.25zm-156.875 16.277344c-7.746094-2.007812-14.5-8.480468-14.5-16.277344 0-7.476562 7.210938-13.519531 14.5-15.796874zm.320312-47.574218c-2.398437.425781-4.777343 1.085937-7.085937 1.964843v-19.253906c0-42.984375 34.96875-77.953125 77.949219-77.953125 42.984375 0 77.953125 34.96875 77.953125 77.953125v18.710937c-2.285157-.804687-4.714844-1.375-6.761719-1.6875 0-1.730468.03125-3.089843-.308594-4.4375-.980468-3.882812-5-7.484374-22.617187-26.40625-5.53125-5.945312-12.515625-6.222656-17.726563-2.816406-26.128906 17.070313-57.996094 25.648438-87.414062 23.535156-6.628906-.503906-12.554688 3.988282-13.988282 10.390626zm14.679688 53.941406c0-5.816406 0-44.308594 0-49.253906 31.855469 1.859374 65.816406-7.402344 93.738281-25.285157 10.785157 11.582031 16.742188 17.777344 18.636719 20.101563v54.4375c0 30.773437-25.101562 55.238281-55.203125 55.273437-.027344 0-.050781.003907-.074219.003907-.019531 0-.039062-.003907-.058594-.003907-34.132812-.023437-57.039062-26.515625-57.039062-55.273437zm85.148438 64.429687v14.425781c-7.394532 7.996094-17.65625 12.328126-28.207032 12.328126-10.605468 0-20.808594-4.332032-28.203125-12.328126v-13.953124c9.121094 3.667968 18.964844 5.375 28.359375 5.375 9.78125 0 19.445313-2.082032 28.050782-5.847657zm-69.148438 42.550781c-4.1875-2.898437-7.578125-6.832031-9.902344-11.410156l13.03125-5.054687c9.699219 9.722656 23.175782 15.667969 37.8125 15.667969 14.234375 0 27.832032-5.664063 37.816406-15.667969l13.035157 5.046875c-10.714844 21.121094-56.585938 35.761718-91.792969 11.417968zm0 0"/></svg>